<svg xmlns="http://www.w3.org/2000/svg" viewBox="0 0 64 64" fill="none">
  <title>普癌新声</title>
  <circle cx="30" cy="32" r="25.5" fill="#E6F3EC"/>
  <path d="M15 22.5A7.5 7.5 0 0 1 22.5 15h16a7.5 7.5 0 0 1 7.5 7.5v8a7.5 7.5 0 0 1-7.5 7.5h-9.2l-6.6 5.1a1.8 1.8 0 0 1-2.7-1.4v-4.1A7.5 7.5 0 0 1 15 30.5v-8Z" fill="#123D35"/>
  <path d="M21.5 30.5h3.4l2.5-5.8 3.7 11 2.6-5.8h4.8" stroke="#75B99B" stroke-width="2.35" stroke-linecap="round" stroke-linejoin="round"/>
  <circle cx="51.5" cy="13.5" r="7.2" fill="#E9C7A4"/>
  <path d="M48.6 13.5h5.8M51.5 10.6v5.8" stroke="#123D35" stroke-width="1.8" stroke-linecap="round"/>
</svg>
